<?xml version="1.0" encoding="UTF-8" standalone="no"?>
<!DOCTYPE svg PUBLIC "-//W3C//DTD SVG 1.1//EN" "http://www.w3.org/Graphics/SVG/1.1/DTD/svg11.dtd">
<svg width="100%" height="100%" viewBox="0 0 2038 2038" version="1.1" xmlns="http://www.w3.org/2000/svg" xmlns:xlink="http://www.w3.org/1999/xlink" xml:space="preserve" xmlns:serif="http://www.serif.com/" style="fill-rule:evenodd;clip-rule:evenodd;stroke-linejoin:round;stroke-miterlimit:2;">
    <path d="M244,1362C244,1362 397.66,823.519 500,672C557.816,586.401 664.532,522.534 751,535C837.468,547.466 895.208,653.886 835,774C774.792,894.114 677.457,973.111 570,1016C469.59,1056.08 426.569,1079.13 420,1105C413.431,1130.87 494.966,1309.59 536,1346C577.034,1382.41 623.594,1407.31 636,1407C648.406,1406.69 581.711,1431.99 535,1406C477.751,1374.14 458.657,1335.32 434,1285C392.964,1201.25 385.448,1165.2 354,1262C322.552,1358.8 325.061,1392.33 288,1410C250.939,1427.67 251,1395 251,1395L244,1362ZM449,991C449,991 638.973,929.877 729,817C775.981,758.095 819.206,646.046 754,604C688.794,561.954 590.432,682.862 555,721C519.568,759.138 499.618,803.239 478,870C456.382,936.761 449,991 449,991Z" style="fill:rgb(0,153,136);"/>
    <path d="M775,1041C803.673,1049.79 775.924,1088.96 748,1165C720.076,1241.04 704.188,1309.11 718,1361C731.812,1412.89 729.182,1443.92 682,1398C634.818,1352.08 639.877,1273.98 669,1182C698.123,1090.02 696.004,1088.16 722,1060C747.996,1031.84 746.327,1032.21 775,1041Z" style="fill:rgb(0,153,136);"/>
    <path d="M804,924C778.418,959.569 814.045,999.732 842,962C869.955,924.268 829.582,888.431 804,924Z" style="fill:rgb(0,153,136);"/>
    <g transform="matrix(1,0,0,1,0,-10)">
        <path d="M1031,1062C947.298,1058.71 835.995,1180.08 845,1291C854.005,1401.92 872.296,1408.38 922,1428C973.921,1448.5 1008.08,1433.08 1013,1404C1017.93,1374.92 964.026,1416.75 923,1352C881.974,1287.25 930.077,1175.67 963,1153C995.923,1130.33 1066.7,1122.22 1096,1136C1125.3,1149.78 1113.07,1125.8 1121,1116C1128.93,1106.2 1096.16,1064.56 1031,1062Z" style="fill:rgb(0,153,136);"/>
    </g>
    <path d="M1300,747C1300,747 1118.62,1345.38 1123,1405C1127.38,1464.62 1207.88,1235.64 1244,1233C1269.31,1231.15 1282.44,1294.27 1317,1341C1351.56,1387.73 1359.76,1417.69 1373,1408C1412.36,1379.21 1289.22,1249.02 1305,1171C1317.47,1109.32 1574.29,937.931 1546,939C1517.71,940.069 1446.34,962.081 1374,1016C1301.66,1069.92 1281.91,1069.06 1306,995C1330.09,920.938 1382.48,758.966 1355,744C1327.52,729.034 1300,747 1300,747Z" style="fill:rgb(0,153,136);"/>
    <path d="M1470,1119C1521.09,1063.82 1515.46,1224.08 1532,1263C1542.37,1287.4 1619.81,1089.62 1652,1073C1684.19,1056.38 1690.42,1047.04 1700,1074C1709.58,1100.96 1560.22,1408.4 1476,1470C1391.78,1531.6 1271.95,1604.99 1213,1606C1154.05,1607.01 1430.76,1483.55 1465,1367C1499.24,1250.45 1425.94,1166.59 1470,1119Z" style="fill:rgb(0,153,136);"/>
</svg>
