<?xml version="1.0" encoding="utf-8"?><!DOCTYPE svg PUBLIC "-//W3C//DTD SVG 1.1//EN" "http://www.w3.org/Graphics/SVG/1.1/DTD/svg11.dtd"><svg version="1.1" id="Contours" xmlns="http://www.w3.org/2000/svg" xmlns:xlink="http://www.w3.org/1999/xlink" x="0px" y="0px" width="2038.000000px" height="2038.000000px" viewBox="-0.000000 -0.000000 2038.000000 1323.000000" enable-background="new 0 0 2038.000000 2038.000000" xml:space="preserve" stroke="black" fill="none" stroke-linecap='round' stroke-linejoin='round'><path class="selected"  fill="#000000" opacity="1.000000" stroke="none" 
 	d="
M371.988897 678.449956 C370.916430 679.477843 368.835737 678.994307 368.326440 677.598831 C369.198165 674.421407 373.892424 673.158288 376.240942 675.469217 C374.876342 676.541458 373.511741 677.613699 372.147141 678.685940 z"/><path class="selected"  fill="#000000" opacity="1.000000" stroke="none" 
 	d="
M324.113513 798.127643 C325.214128 797.096198 326.314743 796.064753 327.415358 795.033308 C328.110978 796.607618 328.822484 798.285011 328.588201 799.990134 C328.353918 801.695256 326.762825 803.334645 325.084515 802.953059 C324.946025 801.268581 324.539394 799.606424 323.884597 798.048252 z"/><path class="selected"  fill="#000000" opacity="1.000000" stroke="none" 
 	d="
M449.890227 826.489084 C450.037595 825.021561 450.184963 823.554037 450.332331 822.086513 C452.237350 823.139155 453.915554 824.599896 455.220835 826.341560 C453.647282 827.230801 451.633577 827.289185 450.011146 826.492607 z"/><path class="selected"  fill="#000000" opacity="1.000000" stroke="none" 
 	d="
M673.689418 523.094038 C674.311224 521.565704 676.601735 521.067263 677.802403 522.199006 C675.808837 525.099492 672.901250 527.361765 669.599710 528.581181 C668.151738 526.154279 670.687132 522.535821 673.462569 523.068193 z"/><path class="selected"  fill="#000000" opacity="1.000000" stroke="none" 
 	d="
M325.130890 804.834574 C327.150345 806.128298 327.734723 809.205162 326.330203 811.149189 C325.551863 810.659450 324.773522 810.169707 323.995181 809.679964 C325.022603 808.399139 325.373768 806.605012 324.905056 805.031347 z"/><path class="selected"  fill="#000000" opacity="1.000000" stroke="none" 
 	d="
M441.016360 949.542643 C442.218856 950.309313 442.377549 952.277772 441.313400 953.227173 C440.122158 952.077251 439.030247 950.824458 438.053805 949.487315 C438.507853 948.336051 440.505394 948.367230 440.923291 949.532105 z"/><path class="selected"  fill="#000000" opacity="1.000000" stroke="none" 
 	d="
M580.939811 339.518849 C580.909228 337.196496 584.866994 336.326031 585.813647 338.446905 C585.054664 340.295058 582.361550 340.982325 580.809773 339.723866 z"/><path class="selected"  fill="#000000" opacity="1.000000" stroke="none" 
 	d="
M790.948617 289.404994 C792.010249 288.853022 793.493295 289.412821 793.925398 290.528627 C793.356364 291.321030 792.451417 291.863621 791.484377 291.992224 C791.015374 291.265554 790.848923 290.349993 791.032149 289.504749 z"/><path class="selected"  fill="#000000" opacity="1.000000" stroke="none" 
 	d="
M634.999992 1050.000169 C635.000143 1050.833337 635.000294 1051.666506 635.000445 1052.499674 C634.017780 1053.151333 632.477271 1052.613255 632.114037 1051.491493 C632.668202 1050.477478 633.863962 1049.853897 635.012633 1049.979893 z"/><path class="selected"  fill="#000000" opacity="1.000000" stroke="none" 
 	d="
M532.679957 986.013342 C533.818362 986.767712 534.956766 987.522081 536.095171 988.276450 C535.137482 989.603762 532.549078 988.679077 532.649176 987.045403 z"/><path class="selected"  fill="#000000" opacity="1.000000" stroke="none" 
 	d="
M353.999988 904.000107 C353.999077 903.164603 353.998166 902.329099 353.997255 901.493595 C354.749422 901.015103 355.690251 900.842669 356.563223 901.023308 C356.375675 902.399617 355.333814 903.622364 354.004723 904.026008 z"/><path class="selected"  fill="#000000" opacity="1.000000" stroke="none" 
 	d="
M318.132013 796.068814 C320.145230 796.183597 322.130840 796.758630 323.893835 797.737439 C322.483364 797.115097 321.693348 799.616903 322.559523 800.892237 C323.425699 802.167572 324.991079 803.127187 325.080821 804.666240 C322.701159 805.533818 320.321497 806.401394 317.941835 807.268970 C317.971305 805.533381 318.000775 803.797792 318.030246 802.062204 C318.064168 800.064407 318.098091 798.066610 318.132013 796.068814 z"/><path class="selected"  fill="#000000" opacity="1.000000" stroke="none" 
 	d="
M793.993130 333.498047 C794.349197 334.476789 792.650777 335.319374 792.086886 334.443734 C791.755917 333.527880 792.000310 332.430750 792.688721 331.741969 C793.195701 332.249616 793.702680 332.757264 794.209658 333.264911 z"/><path class="selected"  fill="#000000" opacity="1.000000" stroke="none" 
 	d="
M757.013998 423.448928 C757.981402 423.947227 757.595776 425.749361 756.509168 425.808137 C755.664317 425.230518 754.712592 424.419038 754.884233 423.410099 C755.055874 422.401160 757.098734 422.603154 756.657522 423.526599 z"/><path class="selected"  fill="#000000" opacity="1.000000" stroke="none" 
 	d="
M541.957786 287.611601 C542.928973 287.877649 543.288233 289.337351 542.551464 290.023759 C541.663605 290.058605 540.636007 289.695136 540.373692 288.846200 C540.111377 287.997265 541.310224 287.024214 541.902711 287.686377 z"/><path class="selected"  fill="#000000" opacity="1.000000" stroke="none" 
 	d="
M325.520034 788.065872 C326.141054 787.626445 327.009055 788.471460 326.887291 789.222416 C326.765528 789.973372 326.100198 790.497271 325.484407 790.943996 C324.799651 790.104539 324.783432 788.789444 325.447274 787.933353 z"/><path class="selected"  fill="#000000" opacity="1.000000" stroke="none" 
 	d="
M400.505833 765.997990 C401.238558 767.557332 401.234323 769.444381 400.494606 771.000419 C399.760761 769.442804 399.764985 767.556208 400.505799 766.001893 z"/><path class="selected"  fill="#000000" opacity="1.000000" stroke="none" 
 	d="
M505.047727 439.679640 C503.564508 439.543579 504.060269 436.678414 505.519669 436.976078 C506.150643 437.715879 505.858670 439.031633 504.973998 439.435104 z"/><path class="selected"  fill="#000000" opacity="1.000000" stroke="none" 
 	d="
M476.370291 372.922759 C476.639873 374.003587 474.682551 373.487495 474.128015 372.521393 C474.291107 371.810254 474.984670 371.192454 475.704019 371.314311 C476.423368 371.436168 476.841346 372.487338 476.289410 372.964495 z"/><path class="selected"  fill="#000000" opacity="1.000000" stroke="none" 
 	d="
M1472.260167 606.769751 C1471.488195 607.630863 1470.211053 608.001379 1469.098088 607.687112 C1470.541512 605.551531 1473.808334 603.351577 1475.195229 605.524299 C1474.332279 606.067993 1473.469330 606.611686 1472.606380 607.155380 z"/><path class="selected"  fill="#000000" opacity="1.000000" stroke="none" 
 	d="
M1273.044336 523.437295 C1273.164568 525.054202 1273.284799 526.671110 1273.405030 528.288017 C1274.500499 526.926805 1276.902070 526.965264 1277.953390 528.360855 C1276.830769 530.281611 1273.896128 530.813631 1272.170686 529.409204 C1270.445243 528.004776 1270.370470 525.023238 1272.023347 523.534087 z"/><path class="selected"  fill="#000000" opacity="1.000000" stroke="none" 
 	d="
M1287.179295 701.552054 C1287.656922 700.625743 1288.134549 699.699431 1288.612176 698.773119 C1289.384062 699.278096 1290.155950 699.783074 1290.927838 700.288052 C1290.516972 701.108197 1290.051743 701.983754 1289.226691 702.384672 C1288.401638 702.785589 1287.148685 702.367687 1287.092778 701.452089 z"/><path class="selected"  fill="#000000" opacity="1.000000" stroke="none" 
 	d="
M1188.523534 799.986065 C1189.094829 801.014908 1190.152249 801.759616 1191.313418 801.950891 C1192.349774 800.593577 1193.386131 799.236263 1194.422488 797.878949 C1194.469335 801.514979 1194.007783 805.157199 1193.055447 808.666610 C1192.625269 810.251849 1190.776194 812.122571 1189.757275 810.834222 C1188.980394 810.324116 1188.686421 809.197138 1189.115146 808.372551 C1187.623474 807.593098 1185.528045 808.441013 1184.998190 810.038475 C1185.229640 807.077808 1184.541129 804.051693 1183.051530 801.482604 C1184.059062 800.641213 1185.783062 800.900647 1186.498349 802.001294 C1187.173410 801.329551 1187.848472 800.657808 1188.523534 799.986065 z"/><path class="selected"  fill="#000000" opacity="1.000000" stroke="none" 
 	d="
M1416.050472 706.485869 C1416.160559 707.298057 1415.323119 708.088145 1414.518706 707.931024 C1413.698606 707.423357 1413.146027 706.507124 1413.079633 705.544897 C1413.881988 704.455598 1416.001787 705.148209 1416.006193 706.501105 z"/><path class="selected"  fill="#000000" opacity="1.000000" stroke="none" 
 	d="
M1259.178163 589.527001 C1258.983749 590.923908 1256.875607 591.549661 1255.950547 590.485043 C1256.121946 589.578015 1256.426686 588.563141 1257.259639 588.165305 C1258.092592 587.767469 1259.336953 588.726717 1258.813393 589.486960 z"/><path class="selected"  fill="#000000" opacity="1.000000" stroke="none" 
 	d="
M1290.496806 458.020935 C1291.127296 456.718078 1293.502523 457.060629 1293.739186 458.488545 C1293.406743 460.186082 1290.194504 459.683800 1290.396130 457.965812 z"/><path class="selected"  fill="#000000" opacity="1.000000" stroke="none" 
 	d="
M1292.398151 462.131665 C1293.032212 462.829888 1293.666273 463.528111 1294.300334 464.226334 C1293.501683 465.666438 1290.807640 463.827769 1291.857637 462.559205 z"/><path class="selected"  fill="#000000" opacity="1.000000" stroke="none" 
 	d="
M1286.931858 957.862500 C1285.723408 958.896327 1284.556195 956.258380 1285.463060 954.951956 C1286.755787 954.565972 1287.185712 956.634200 1286.888622 957.950201 z"/><path class="selected"  fill="#000000" opacity="1.000000" stroke="none" 
 	d="
M1483.928038 588.496477 C1484.013681 587.375748 1484.099324 586.255020 1484.184967 585.134291 C1485.978670 585.255574 1485.883778 588.631741 1484.086093 588.652084 z"/><path class="selected"  fill="#000000" opacity="1.000000" stroke="none" 
 	d="
M1375.468376 666.999283 C1376.788142 666.496879 1377.269767 668.806090 1376.564748 670.029666 C1375.222502 670.513600 1374.739248 668.205272 1375.407523 666.944628 z"/><path class="selected"  fill="#000000" opacity="1.000000" stroke="none" 
 	d="
M1285.775162 948.521194 C1286.205363 948.081822 1286.655262 947.647534 1287.199206 947.360747 C1288.813038 946.509872 1291.116935 947.407708 1291.639837 949.155565 C1292.162739 950.903422 1290.617583 952.964435 1288.795989 952.863320 C1286.974394 952.762205 1285.678059 950.412648 1286.636676 948.860397 z"/><path class="selected"  fill="#000000" opacity="1.000000" stroke="none" 
 	d="
M1292.006902 454.516096 C1291.005546 454.108653 1291.420404 452.236503 1292.500144 452.290219 C1293.901267 452.195388 1293.266417 455.093385 1292.033259 454.421475 z"/><path class="selected"  fill="#000000" opacity="1.000000" stroke="none" 
 	d="
M1486.799055 592.493920 C1486.793132 593.174418 1485.940222 593.685593 1485.337306 593.369992 C1484.734389 593.054390 1484.668419 592.062219 1485.224243 591.669572 C1485.503971 590.311415 1488.104618 591.621445 1487.179756 592.654626 z"/><path class="selected"  fill="#000000" opacity="1.000000" stroke="none" 
 	d="
M1356.403210 1140.013603 C1355.187400 1138.086140 1357.653579 1135.205053 1359.745519 1136.108987 C1359.875486 1137.922970 1359.576988 1139.766259 1358.881172 1141.446521 C1358.191190 1142.714853 1355.788576 1141.256807 1356.595078 1140.059186 z"/><path class="selected"  fill="#000000" opacity="1.000000" stroke="none" 
 	d="
M1667.879384 835.468139 C1667.322261 837.046284 1664.577526 837.017761 1664.053319 835.428379 C1666.280831 833.513856 1669.418088 832.708968 1672.292175 833.314634 C1671.739910 834.856153 1669.738784 835.680470 1668.260998 834.975185 z"/><path class="selected"  fill="#000000" opacity="1.000000" stroke="none" 
 	d="
M1703.565562 751.010990 C1703.877784 749.486347 1705.453747 748.333179 1707.001393 748.496916 C1706.944544 750.332235 1705.075657 751.895299 1703.259204 751.626737 z"/><path class="selected"  fill="#000000" opacity="1.000000" stroke="none" 
 	d="
M1703.466994 728.000256 C1702.910813 726.543160 1701.995235 725.224768 1700.824163 724.194694 C1703.006374 723.093782 1706.019690 724.258460 1706.894226 726.540838 C1705.762836 727.027217 1704.631445 727.513597 1703.500055 727.999976 z"/><path class="selected"  fill="#000000" opacity="1.000000" stroke="none" 
 	d="
M1293.168091 1186.508356 C1293.027490 1187.896218 1290.927964 1188.554473 1290.020159 1187.495313 C1289.475565 1186.196783 1291.795852 1185.808801 1293.071983 1186.403989 z"/><path class="selected"  fill="#000000" opacity="1.000000" stroke="none" 
 	d="
M1292.272992 955.515426 C1292.276144 956.359012 1291.259811 957.024238 1290.487969 956.683788 C1289.716127 956.343337 1289.522123 955.144246 1290.147233 954.577779 C1290.794760 954.134763 1291.842308 954.753009 1291.767446 955.534000 z"/><path class="selected"  fill="#000000" opacity="1.000000" stroke="none" 
 	d="
M1500.871719 773.396653 C1500.185135 774.531238 1498.023407 773.895687 1498.060134 772.570042 C1498.847752 771.461312 1500.992327 772.132613 1501.007200 773.492541 z"/><path class="selected"  fill="#000000" opacity="1.000000" stroke="none" 
 	d="
M855.404865 870.836685 C856.827281 869.852704 858.249697 868.868723 859.672112 867.884743 C860.933207 869.523992 860.924875 872.018998 859.652861 873.649787 C858.162039 873.118985 856.349242 873.706193 855.452790 875.010290 C854.751650 873.793151 854.767570 872.195892 855.492828 870.992969 z"/><path class="selected"  fill="#000000" opacity="1.000000" stroke="none" 
 	d="
M1006.015461 705.107338 C1008.872192 704.742965 1011.622780 707.714055 1011.039627 710.534271 C1010.351867 711.039790 1009.417434 711.191255 1008.605202 710.928874 C1007.667584 708.985228 1006.729967 707.041585 1005.792351 705.097942 z"/><path class="selected"  fill="#000000" opacity="1.000000" stroke="none" 
 	d="
M1101.990699 767.476511 C1100.451068 768.541226 1098.076244 768.092237 1097.031581 766.538930 C1098.615823 765.394587 1101.083269 765.750654 1102.279345 767.296212 z"/><path class="selected"  fill="#000000" opacity="1.000000" stroke="none" 
 	d="
M915.513943 1021.052610 C916.344561 1020.802042 917.287972 1020.959277 917.992427 1021.465690 C918.213792 1022.301549 918.036168 1023.233898 917.522980 1023.929816 C915.985009 1024.792645 914.126110 1022.100028 915.531946 1021.035393 z"/><path class="selected"  fill="#000000" opacity="1.000000" stroke="none" 
 	d="
M1696.934348 725.332184 C1698.333918 724.535527 1699.783538 727.296313 1698.333114 727.996118 C1697.837728 727.191693 1697.342347 726.387265 1696.846966 725.582838 z"/><path class="selected"  fill="#000000" opacity="1.000000" stroke="none" 
 	d="
M1272.345234 1233.006884 C1272.366409 1233.976948 1270.393221 1233.251256 1271.037871 1232.526067 C1272.572244 1231.751067 1274.475303 1231.753090 1276.008023 1232.531350 C1274.932627 1233.058539 1273.678745 1233.212873 1272.507606 1232.962197 z"/><path class="selected"  fill="#000000" opacity="1.000000" stroke="none" 
 	d="
M1006.606990 1045.845749 C1008.283989 1046.867635 1006.110735 1050.026917 1004.556741 1048.826219 C1003.703527 1047.634840 1005.097420 1045.678749 1006.502062 1046.096294 z"/><path class="selected"  fill="#000000" opacity="1.000000" stroke="none" 
 	d="
M891.505391 808.018470 C889.983823 807.972994 888.534313 806.959851 887.968796 805.546547 C889.073704 805.307392 890.295511 805.083884 891.279934 805.639694 C892.264357 806.195504 892.569680 807.893137 891.549855 808.380959 z"/><path class="selected"  fill="#000000" opacity="1.000000" stroke="none" 
 	d="
M1553.443256 1018.017796 C1554.062041 1019.284242 1551.200827 1019.926622 1551.218846 1018.517205 C1551.413410 1017.531390 1552.961223 1017.198315 1553.544059 1018.016838 z"/><path class="selected"  fill="#000000" opacity="1.000000" stroke="none" 
 	d="
M875.535824 839.009008 C876.686742 840.532778 875.192370 843.147958 873.295269 842.930022 C873.053413 841.366788 874.071085 839.703269 875.572988 839.206792 z"/><path class="selected"  fill="#000000" opacity="1.000000" stroke="none" 
 	d="
M1034.871719 757.396653 C1034.185135 758.531238 1032.023407 757.895687 1032.060134 756.570042 C1032.847752 755.461312 1034.992327 756.132613 1035.007200 757.492541 z"/><path class="selected"  fill="#000000" opacity="1.000000" stroke="none" 
 	d="
M921.493687 1025.913730 C920.900956 1026.358754 920.008736 1025.601109 920.086403 1024.863990 C920.164070 1024.126871 920.814507 1023.589138 921.462838 1023.229913 C922.929040 1023.327805 922.989964 1026.028895 921.529669 1026.192796 z"/><path class="selected"  fill="#000000" opacity="1.000000" stroke="none" 
 	d="
M702.199436 1049.460275 C701.585554 1048.389317 702.926863 1047.037415 704.149536 1047.207337 C705.372209 1047.377260 706.253948 1048.455789 706.858071 1049.532283 C705.980637 1051.337264 702.855352 1051.262904 702.064754 1049.418239 z"/><path class="selected"  fill="#000000" opacity="1.000000" stroke="none" 
 	d="
M734.888479 833.679718 C735.260829 834.238943 735.633180 834.798169 736.005530 835.357394 C735.555750 836.526417 734.649202 837.512739 733.522168 838.059289 C733.843931 836.705457 734.165694 835.351625 734.487457 833.997794 z"/><path class="selected"  fill="#000000" opacity="1.000000" stroke="none" 
 	d="
M783.086587 709.492995 C782.962853 706.619487 782.839119 703.745979 782.715385 700.872471 C785.087332 703.428510 786.197313 707.103485 785.636914 710.545205 C784.736419 711.139688 783.309130 710.471352 783.189131 709.399017 z"/><path class="selected"  fill="#000000" opacity="1.000000" stroke="none" 
 	d="
M751.071927 790.968874 C749.209870 791.108874 748.109668 788.175488 749.604521 787.056438 C751.370077 787.038848 752.643524 789.970872 750.939384 790.432834 z"/><path class="selected"  fill="#000000" opacity="1.000000" stroke="none" 
 	d="
M810.932914 570.497282 C809.814404 573.278851 808.695895 576.060421 807.577385 578.841990 C807.457594 577.011992 804.694282 576.722553 803.185602 577.765206 C801.360984 575.893431 800.904920 572.825482 802.106175 570.503902 C803.307430 568.182321 806.075249 566.782506 808.657120 567.190783 C808.534613 568.635092 809.540087 570.095945 810.932914 570.497282 z"/><path class="selected"  fill="#000000" opacity="1.000000" stroke="none" 
 	d="
M841.114807 575.504781 C840.973089 577.148310 839.124589 578.411309 837.541961 577.945950 C837.094477 576.785140 836.646996 575.624328 836.199515 574.463517 C837.081293 572.354339 841.025658 573.241618 840.919286 575.525220 z"/><path class="selected"  fill="#000000" opacity="1.000000" stroke="none" 
 	d="
M654.878970 982.436770 C654.450165 983.362715 652.693147 982.410680 653.234686 981.545819 C653.693870 980.278932 656.070960 981.677719 655.186438 982.694322 z"/><path class="selected"  fill="#000000" opacity="1.000000" stroke="none" 
 	d="
M1001.102265 1055.231343 C1000.127038 1056.223231 998.310597 1054.174558 999.424834 1053.341859 C1000.539071 1052.509160 1001.952503 1054.901631 1000.677200 1055.457070 z"/><path class="selected"  fill="#000000" opacity="1.000000" stroke="none" 
 	d="
M732.709024 447.861553 C729.243151 453.097835 730.593666 459.986660 730.145230 466.250031 C729.696795 472.513403 725.029053 479.888492 718.946903 478.326963 C715.779993 477.513892 713.280956 481.165971 712.647572 484.373654 C712.014187 487.581338 711.929187 491.320677 709.389376 493.379747 C707.062995 495.265789 703.721274 494.861608 700.746859 495.210981 C697.772444 495.560355 694.326849 497.820790 695.074451 500.720842 C696.386322 505.809765 692.470209 511.069504 687.631675 513.120536 C682.793141 515.171567 677.319767 514.823352 672.078512 514.439437 C669.768316 514.270217 668.128870 516.566172 666.984606 518.580198 C663.635927 524.474228 660.287248 530.368257 656.938569 536.262286 C658.587587 535.588377 660.236605 534.914468 661.885623 534.240559 C661.970396 537.519843 661.122453 540.818126 659.466608 543.649921 C646.725979 544.447864 634.033395 546.012212 621.480294 548.331695 C618.123453 548.951951 614.027467 550.407751 613.722310 553.807748 C613.058500 561.203774 606.902484 567.749121 599.561000 568.864676 C601.163797 571.712556 604.853812 573.193980 607.980924 572.245008 C607.180116 574.383662 606.379307 576.522316 605.578499 578.660970 C603.033419 578.233010 600.488339 577.805051 597.943259 577.377091 C584.710553 580.639087 570.918899 581.620833 557.357559 580.266147 C559.227054 583.922701 556.969378 589.029818 553.006740 590.108191 C555.480216 589.904045 558.007364 591.364993 559.064777 593.610352 C546.762642 594.452820 534.460508 595.295288 522.158373 596.137756 C518.803173 596.367525 514.883018 596.940963 513.276600 599.895550 C511.048896 603.992833 514.512652 610.633119 510.501285 613.012051 C503.919714 612.190924 497.133507 613.067448 490.976570 615.533915 C492.621408 616.491624 494.266246 617.449332 495.911083 618.407041 C495.394160 621.294156 494.877237 624.181271 494.360314 627.068387 C487.366863 627.959509 480.373412 628.850632 473.379961 629.741755 C465.777798 630.710441 462.663711 620.332757 462.467032 612.671652 C462.283193 605.510699 464.385374 595.812587 471.548682 595.804856 C477.924253 595.797974 480.977381 587.813221 480.863707 581.438660 C480.750033 575.064099 479.490092 567.867853 483.592774 562.987694 C484.845670 563.928313 486.098565 564.868933 487.351460 565.809552 C493.583507 564.994294 495.561461 557.071622 496.063379 550.806549 C497.246640 536.036752 498.429901 521.266954 499.613163 506.497157 C501.307562 506.424866 502.766153 508.323316 502.259776 509.941895 C504.166772 508.760082 505.351271 506.499475 505.237540 504.258854 C502.271500 505.958457 499.604370 501.566846 499.047404 498.194037 C495.850804 478.836320 496.325706 458.878819 500.439431 439.695058 C499.496242 443.706717 505.521570 446.441012 508.959420 444.168526 C512.397270 441.896040 513.260136 437.218858 513.077993 433.101841 C512.895849 428.984824 511.997245 424.769329 513.135055 420.808472 C514.945740 414.505256 522.418993 410.477943 528.679338 412.431707 C529.423968 404.770940 531.514867 397.242911 534.827651 390.295445 C536.952058 391.088050 539.597825 389.993538 540.541415 387.931750 C540.738756 390.440726 540.936097 392.949701 541.133438 395.458676 C542.573167 396.337487 544.647317 395.955290 545.679252 394.621034 C544.944121 391.732690 544.208989 388.844345 543.473858 385.956000 C540.314221 385.095585 537.154583 384.235170 533.994946 383.374755 C537.138230 381.936544 540.818371 381.711246 544.113618 382.755289 C548.129056 381.022825 548.832193 375.795936 549.775016 371.525543 C550.717838 367.255150 554.200200 362.291126 558.323166 363.749317 C561.107385 364.734027 563.518148 361.332734 563.822435 358.395228 C564.126721 355.457722 563.594517 352.166899 565.390936 349.822884 C569.511469 344.446304 581.972775 348.561990 582.548213 341.812525 C583.089428 343.510513 583.630643 345.208500 584.171858 346.906487 C586.423783 348.024321 587.865242 344.521317 588.842893 342.205088 C589.820544 339.888859 594.714575 339.985172 593.333637 342.086059 C593.093403 335.746472 592.887406 329.193474 595.215549 323.291963 C597.543692 317.390451 603.119225 312.278614 609.456695 312.569421 C613.731796 312.765591 613.506086 306.148599 615.466606 302.344479 C619.638854 294.248804 633.097180 300.774054 640.780991 295.884612 C650.358432 289.790196 642.805569 273.327570 649.581568 264.219599 C658.294522 263.948486 667.007477 263.677372 675.720431 263.406259 C681.079652 263.239501 686.671064 263.011707 691.361959 260.414678 C696.052854 257.817649 699.463410 252.058998 697.582639 247.037868 C704.664786 251.013204 714.906482 243.725046 713.471227 235.731289 C712.860307 232.328720 717.604064 230.841716 721.060973 230.819867 C734.723660 230.733513 748.389643 231.169882 762.018988 232.127699 C760.931049 236.354686 760.747076 240.811989 761.482975 245.114254 C767.513963 246.486147 773.544951 247.858039 779.575938 249.229932 C779.783372 260.202897 779.990806 271.175862 780.198240 282.148826 C780.308422 287.977295 780.853517 294.683430 785.580425 298.095104 C788.454645 300.169588 794.290735 297.837995 792.349195 294.872351 C796.131059 298.501772 795.694726 305.535485 791.493285 308.669665 C795.214726 315.294040 795.792479 323.598732 793.024156 330.674596 C791.702966 326.806358 785.616186 326.884655 782.910168 329.948359 C780.204151 333.012063 779.955721 337.464796 779.844730 341.550931 C779.358302 359.459087 778.871871 377.367242 778.385441 395.275397 C773.857442 393.905559 768.998745 393.643093 764.349529 394.517178 C764.695240 402.796566 762.895496 413.802708 754.672312 414.825955 C749.520601 415.467005 746.625672 421.236589 746.111419 426.402499 C745.597166 431.568409 746.497874 436.956800 744.779858 441.855729 C743.061842 446.754657 737.021608 450.751657 732.709024 447.861553 M782.251868 311.595800 C781.394875 313.378495 781.784374 315.682244 783.179788 317.084120 C784.745401 315.282584 784.407174 312.167104 782.491432 310.743512 M511.001945 508.511260 C511.471372 507.393492 509.640798 506.839814 508.441553 507.017522 C507.538326 508.278490 508.107901 510.315455 509.534174 510.925052 C510.323883 510.360998 510.860321 509.455235 510.975375 508.491618 M765.993954 391.487405 C767.613028 391.925519 768.454221 389.327364 767.538355 387.922183 C765.739244 388.134607 764.273848 391.030287 766.047991 391.396832 M653.534594 269.524768 C653.426142 268.555043 651.969714 268.303206 651.219809 268.927523 C650.469904 269.551840 650.268131 270.602447 650.113985 271.565965 C651.402262 272.279836 653.248984 270.924919 652.954689 269.481774 M507.898836 499.523645 C508.026644 500.565484 508.683683 501.528458 509.607160 502.027410 C510.887422 500.997235 510.619588 498.632117 509.141383 497.914320 C508.682521 498.383620 508.223658 498.852920 507.764796 499.322220 M724.150214 466.833009 C724.964106 466.385393 724.450715 464.975222 723.547119 464.760062 C722.643523 464.544902 721.745054 465.066254 720.962000 465.565859 C721.001122 466.934638 723.173412 467.570833 723.944762 466.439417 M598.488396 573.998435 C598.278899 574.973317 600.287106 574.509630 600.036169 573.544583 C599.785232 572.579537 598.579553 572.290177 597.588870 572.176898 C596.683877 572.621385 597.570064 574.346853 598.458546 573.870223 M783.556120 320.956867 C783.586058 321.664852 784.663944 321.876955 785.199352 321.412761 C785.734760 320.948566 785.846793 320.174347 785.923820 319.469929 C784.868933 318.665249 783.050786 319.768882 783.277821 321.076075 M551.944473 583.570204 C552.958433 584.166343 554.454268 583.623917 554.850452 582.516427 C554.049929 581.451131 551.963903 582.188542 552.010727 583.520267 z"/><path class="selected"  fill="#000000" opacity="1.000000" stroke="none" 
 	d="
M2038.000000 0.000000 C2038.000000 441.000000 2038.000000 882.000000 2038.000000 1323.000000 C1358.666667 1323.000000 679.333333 1323.000000 0.000000 1323.000000 C0.000000 882.000000 0.000000 441.000000 0.000000 0.000000 C679.333333 0.000000 1358.666667 0.000000 2038.000000 0.000000 M1088.381470 713.480075 C1082.608066 713.396600 1076.954182 710.363922 1073.691129 705.600347 C1073.148491 707.605616 1074.096546 709.917890 1075.890708 710.965049 C1073.413966 711.677326 1070.530038 710.578574 1069.155125 708.398849 C1069.668102 706.235361 1071.782566 704.563630 1074.006038 704.563636 C1074.029233 702.421946 1074.052427 700.280256 1074.075622 698.138566 C1051.281958 693.939283 1027.642427 694.386731 1005.024000 699.445572 C1005.063287 703.274515 1005.102574 707.103458 1005.141861 710.932402 C1002.817731 712.030365 999.725846 711.053182 998.454839 708.818983 C996.942901 712.646896 991.765199 712.886835 987.658320 713.155886 C983.551441 713.424937 978.333743 716.100477 979.457521 720.059766 C981.262088 726.417601 972.911223 730.933282 966.302563 730.868879 C959.693903 730.804477 952.110865 729.212547 947.231866 733.670562 C949.609973 736.914401 947.590946 741.848619 944.163768 743.953929 C940.736590 746.059238 936.480495 746.122129 932.458322 746.122215 C927.861322 746.122312 930.140489 753.723994 928.323223 757.946547 C927.067398 760.864553 923.553222 761.993979 920.410120 762.455253 C917.267019 762.916527 913.820278 763.156245 911.482694 765.307423 C909.145110 767.458600 909.380825 772.348572 912.504737 772.925668 C908.723785 774.933836 905.309754 777.630286 902.480272 780.843131 C900.789448 779.756079 899.098625 778.669027 897.407802 777.581974 C897.770518 785.502856 896.221953 795.958611 888.397486 797.242998 C881.498551 798.375459 879.889766 807.421081 879.729203 814.410501 C879.568640 821.399920 877.283715 830.494259 870.303272 830.883089 C865.269196 831.163501 862.805325 837.263238 862.709922 842.304216 C862.600027 848.110950 863.971848 854.194076 861.753874 859.561649 C859.535900 864.929221 851.231115 868.026275 848.044120 863.171041 C844.475822 913.964535 843.870281 964.966010 846.231600 1015.829908 C846.378967 1019.004251 846.591423 1022.349362 848.339505 1025.003110 C850.087588 1027.656859 853.934851 1029.203639 856.547818 1027.395164 C856.233860 1025.232684 855.192236 1023.182356 853.630925 1021.653567 C859.753820 1022.405083 862.137431 1030.016124 862.341902 1036.181577 C862.546372 1042.347031 862.471960 1049.618465 867.470150 1053.234088 C865.938979 1049.977426 871.923212 1047.602953 874.364912 1050.246518 C876.806611 1052.890083 876.249567 1057.026192 875.536743 1060.553545 C882.665325 1063.226209 890.201725 1064.808074 897.803313 1065.227223 C894.235981 1068.000433 895.752116 1074.200433 899.505971 1076.715412 C903.259827 1079.230390 908.117992 1079.141622 912.632867 1078.961472 C920.083603 1078.664176 927.534338 1078.366881 934.985074 1078.069585 C937.811533 1077.956805 940.870778 1077.757145 943.022641 1075.921097 C945.174504 1074.085049 945.472680 1069.982157 942.908309 1068.788177 C940.153340 1067.505454 935.073023 1069.261359 935.032229 1066.222680 C955.954021 1063.666506 977.037497 1062.434419 998.114619 1062.536241 C1000.827094 1062.549345 1002.105874 1059.332211 1003.472415 1056.989080 C1004.838955 1054.645950 1008.912279 1053.118540 1009.769009 1055.692196 C1012.075710 1049.744117 1014.420082 1043.332218 1012.923382 1037.130577 C1011.426682 1030.928936 1004.259327 1025.747822 998.619237 1028.729405 C992.910069 1031.747503 990.441198 1041.539258 984.128206 1040.179236 C987.108956 1041.012956 990.089707 1041.846677 993.070459 1042.680398 C982.426293 1047.546599 968.844367 1044.987962 960.700417 1036.582354 C963.518615 1037.710105 965.480811 1032.808958 963.391591 1030.606863 C961.302371 1028.404767 957.821850 1028.522011 954.799169 1028.800338 C950.544906 1029.192070 946.290644 1029.583801 942.036382 1029.975531 C937.974822 1030.349519 933.588672 1030.653103 930.110655 1028.522484 C926.632637 1026.391865 925.111817 1020.780363 928.314864 1018.255164 C927.952209 1014.415978 922.080645 1015.640987 918.337998 1014.711762 C912.698455 1013.311578 911.654386 1005.857729 911.784362 1000.048421 C912.575169 964.702856 913.365977 929.357293 914.156785 894.011729 C918.202007 896.311163 922.856580 897.527046 927.509587 897.499793 C928.025251 884.276683 928.540914 871.053572 929.056577 857.830461 C929.290996 851.819282 932.877337 843.459762 938.408408 845.825447 C942.688963 847.656277 945.698209 841.435418 946.227692 836.809974 C946.943382 830.557857 947.659072 824.305739 948.374762 818.053622 C949.809133 819.391984 951.708222 820.222434 953.664692 820.366849 C951.195835 813.860003 967.738823 814.441720 967.285367 807.497034 C966.253340 806.151818 965.221313 804.806605 964.189287 803.461391 C963.822347 800.511559 968.078423 798.285274 970.292183 800.269063 C968.684556 801.265345 967.772148 804.004712 969.469557 804.838883 C971.440019 804.266678 973.410480 803.694473 975.380942 803.122268 C973.893703 801.342975 972.406464 799.563682 970.919225 797.784389 C976.425847 798.451677 981.537605 792.295430 979.869511 787.005286 C978.972171 784.159488 982.844319 782.333556 985.800411 781.926977 C995.667488 780.569869 1005.632299 779.923876 1015.592008 779.995666 C1015.555860 778.706212 1015.519712 777.416759 1015.483563 776.127305 C1019.825198 775.052450 1024.032279 773.435279 1027.976018 771.325296 C1024.659578 769.942822 1021.343138 768.560348 1018.026699 767.177874 C1023.509551 765.958762 1028.992404 764.739649 1034.475257 763.520537 C1040.325007 762.219845 1047.527845 759.349821 1047.564957 753.357326 C1045.417957 753.544635 1043.215792 753.036827 1041.367618 751.928249 C1043.949439 745.771845 1053.482641 745.631465 1058.313450 750.239111 C1063.144259 754.846757 1064.348756 762.022175 1064.821035 768.681309 C1067.993995 766.168567 1072.970104 763.769721 1075.578443 766.864573 C1072.565558 767.641387 1069.398488 768.503786 1067.201069 770.706572 C1065.003651 772.909359 1064.295285 776.917336 1066.567362 779.043033 C1066.484676 775.407511 1068.557884 771.803683 1071.742238 770.047622 C1074.037352 771.961859 1072.842631 776.445860 1069.899334 776.964370 C1079.120761 779.580712 1088.747108 780.764639 1098.327692 780.460721 C1102.114031 780.340610 1106.111752 779.910607 1109.152979 777.651907 C1112.194205 775.393206 1113.737685 770.724926 1111.458018 767.699384 C1109.934211 769.495970 1107.668895 770.643480 1105.318947 770.809168 C1106.544125 768.637877 1107.769304 766.466586 1108.994482 764.295295 C1115.125739 766.969189 1123.016484 764.646139 1126.720863 759.076616 C1130.425243 753.507092 1129.517127 745.331779 1124.680802 740.710959 C1123.156088 741.423492 1123.451273 744.166555 1125.092675 744.538378 C1122.051280 744.695487 1119.009885 744.852595 1115.968490 745.009703 C1117.277431 736.685291 1110.743303 727.943264 1102.388935 726.841582 C1100.942277 729.000239 1097.535990 726.225416 1097.543897 723.626848 C1097.551805 721.028279 1098.835330 718.230779 1097.558334 715.967617 C1095.916751 713.058317 1091.721603 713.528369 1088.381470 713.480075 M1573.399146 994.627440 C1578.770456 993.894876 1578.087484 986.093648 1579.106393 980.769227 C1580.402181 973.997936 1586.465594 969.411283 1591.247814 964.445417 C1596.030034 959.479550 1599.903233 951.722108 1596.096446 945.974253 C1599.442063 949.596065 1605.913821 948.071794 1609.009335 944.234026 C1612.104850 940.396258 1612.746938 935.195924 1613.270525 930.293218 C1613.756350 925.744100 1614.242175 921.194982 1614.728001 916.645864 C1625.655721 916.352667 1634.479943 904.070947 1631.271104 893.620856 C1634.402050 899.490599 1643.979367 894.043586 1645.174107 887.499177 C1646.368846 880.954767 1644.091903 873.691264 1647.259634 867.841292 C1657.995290 864.734703 1665.742498 853.475704 1664.807673 842.338770 C1678.536067 833.362054 1684.971303 814.632889 1679.659445 799.114050 C1683.937602 797.108065 1689.077046 797.031206 1693.413274 798.908363 C1695.294812 785.501010 1696.479369 771.995871 1696.960567 758.465692 C1698.248037 763.767217 1706.756297 763.650337 1710.001612 759.264942 C1713.246926 754.879548 1712.749500 748.866220 1712.105420 743.448756 C1710.999102 734.143325 1709.892784 724.837893 1708.786466 715.532462 C1692.301632 712.542294 1675.399619 711.861399 1658.727677 713.515849 C1655.126216 713.873242 1651.275519 714.455732 1648.635569 716.931398 C1644.464156 720.843223 1645.107263 727.453671 1645.048445 733.172027 C1644.989626 738.890383 1642.404190 746.003470 1636.689276 746.210381 C1631.184189 746.409696 1628.213252 752.954916 1628.129274 758.462970 C1628.045295 763.971023 1629.481061 769.752183 1627.339259 774.827456 C1625.197458 779.902729 1616.901648 782.411775 1614.482156 777.462860 C1611.733711 787.888510 1610.528129 798.719515 1610.916784 809.494351 C1606.499876 811.242306 1601.737257 812.111611 1596.987643 812.036792 C1594.795625 818.772010 1592.603606 825.507228 1590.411587 832.242446 C1589.636197 834.624914 1588.993283 837.602646 1590.801802 839.336612 C1592.610321 841.070578 1596.392170 837.833759 1594.246685 836.539822 C1591.946085 840.682801 1584.232129 839.079723 1583.772679 834.363153 C1578.809994 837.877027 1579.327667 845.176454 1579.107194 851.253209 C1578.886721 857.329964 1575.056944 864.975013 1569.121444 863.653877 C1565.047300 862.747046 1561.954166 867.703954 1562.032409 871.877067 C1562.110652 876.050180 1563.898244 880.156208 1563.297961 884.286662 C1562.534755 889.538169 1558.181928 893.423781 1554.109948 896.826689 C1546.077088 903.539662 1538.044229 910.252634 1530.011369 916.965607 C1529.549662 882.042328 1529.087955 847.119049 1528.626248 812.195770 C1528.565544 807.604101 1528.417474 802.718951 1525.850724 798.911208 C1523.283974 795.103465 1517.344592 793.223046 1514.022532 796.393381 C1514.310240 788.786965 1513.117437 779.020817 1505.774146 777.016714 C1508.168332 777.415628 1509.614967 773.923762 1508.400074 771.822503 C1507.185181 769.721243 1504.645714 768.854976 1502.322112 768.153455 C1498.414038 766.973565 1494.505964 765.793674 1490.597890 764.613784 C1483.630970 762.510394 1476.155462 760.401676 1469.204271 762.556476 C1462.253080 764.711276 1456.781259 773.062359 1460.341705 779.409441 C1456.192928 778.765237 1452.044151 778.121033 1447.895374 777.476829 C1447.585350 792.839666 1447.275326 808.202503 1446.965301 823.565340 C1449.420265 825.772210 1452.800327 826.915272 1456.090842 826.651394 C1454.870523 823.101843 1456.773045 818.772015 1460.212947 817.270161 C1460.626397 839.510052 1462.253808 861.727323 1465.085520 883.790077 C1468.578900 882.361287 1472.072280 880.932497 1475.565660 879.503707 C1478.228653 896.215929 1479.758834 913.108562 1480.142221 930.027277 C1487.569223 930.266183 1493.655429 935.719531 1499.024479 940.856723 C1507.668512 949.127470 1517.055245 961.062197 1511.648573 971.734239 C1506.764044 981.375639 1491.052997 986.238169 1493.367222 996.795612 C1489.502601 993.096438 1482.696138 996.848506 1480.800722 1001.851163 C1478.905305 1006.853820 1479.814239 1012.461015 1478.851833 1017.723425 C1477.889428 1022.985834 1473.493883 1028.573363 1468.272751 1027.407620 C1464.430098 1026.549656 1462.876947 1031.999526 1461.826163 1035.793987 C1459.102572 1045.629090 1447.151696 1051.748549 1437.579789 1048.209370 C1439.524073 1049.464693 1441.468358 1050.720017 1443.412642 1051.975341 C1447.571654 1053.976665 1442.890486 1060.176058 1438.379775 1061.153895 C1433.869065 1062.131733 1427.545606 1064.297658 1428.788144 1068.742743 C1430.410844 1074.547833 1423.374029 1078.602469 1417.937422 1081.205456 C1412.500816 1083.808442 1406.958342 1090.960847 1411.476795 1094.950310 C1404.901668 1094.395045 1398.117479 1093.862065 1391.845066 1095.910832 C1385.572652 1097.959599 1379.882067 1103.279252 1379.517874 1109.867725 C1378.777762 1123.256784 1364.237148 1134.058159 1351.204907 1130.899778 C1357.139880 1133.940568 1350.705971 1143.026394 1344.177458 1144.386117 C1337.648946 1145.745839 1328.770625 1146.857123 1328.001268 1153.481200 C1327.172546 1160.616401 1320.197917 1166.470809 1313.027068 1166.050339 C1312.510787 1170.072918 1311.994506 1174.095498 1311.478225 1178.118077 C1298.808220 1174.634260 1286.368845 1183.508203 1276.210030 1191.842740 C1271.488043 1195.716772 1266.763304 1199.593183 1262.259650 1203.719003 C1255.454928 1209.952843 1249.165450 1216.748944 1243.476386 1224.015275 C1235.805081 1233.813412 1215.447273 1223.949311 1209.595593 1234.931581 C1208.210684 1237.530739 1208.180511 1240.717107 1206.638475 1243.226235 C1205.096438 1245.735363 1200.674942 1246.772756 1199.540096 1244.055087 C1198.503751 1248.750011 1197.467406 1253.444936 1196.431061 1258.139861 C1201.827177 1260.141923 1207.847909 1260.420990 1213.406085 1258.926671 C1213.321746 1254.765663 1213.237407 1250.604655 1213.153069 1246.443647 C1234.863398 1246.786350 1256.592754 1245.920149 1278.206915 1243.850393 C1276.780054 1239.316310 1277.665816 1234.118542 1280.513856 1230.312954 C1289.694431 1229.111376 1298.875005 1227.909798 1308.055579 1226.708219 C1310.826594 1223.904945 1310.188904 1218.556134 1306.836506 1216.482899 C1313.053558 1215.859724 1319.528215 1215.150464 1324.797291 1211.792352 C1330.066367 1208.434240 1333.662165 1201.560671 1331.233906 1195.803620 C1341.103722 1197.678170 1351.272360 1199.553829 1361.120960 1197.570833 C1370.969561 1195.587837 1380.542713 1188.782370 1382.665976 1178.963054 C1387.691794 1179.693515 1392.967349 1178.557322 1397.246909 1175.822769 C1395.823131 1172.815373 1395.570404 1169.271682 1396.552984 1166.092670 C1406.841473 1163.398670 1417.271188 1161.244104 1427.784987 1159.640776 C1423.496772 1155.897855 1429.215526 1149.181034 1434.655566 1147.506453 C1440.095605 1145.831873 1447.308754 1143.773234 1447.407046 1138.082137 C1447.496360 1132.910854 1453.236769 1130.112919 1457.659618 1127.431773 C1462.082467 1124.750627 1466.014949 1118.345289 1462.123644 1114.938254 C1469.706659 1117.762765 1479.161379 1111.721928 1479.784980 1103.654022 C1480.590261 1093.235599 1503.998218 1095.533249 1501.728475 1085.333235 C1499.458329 1085.452200 1497.163572 1084.289808 1495.916432 1082.389188 C1500.524278 1081.826522 1505.132124 1081.263856 1509.739969 1080.701190 C1511.609664 1074.812119 1513.479358 1068.923048 1515.349052 1063.033976 C1519.363476 1063.055046 1523.377899 1063.076115 1527.392323 1063.097184 C1527.606848 1055.707828 1529.884810 1046.036462 1537.264931 1045.609354 C1544.061158 1045.216038 1548.914414 1036.699219 1545.788411 1030.651782 C1550.735630 1028.539362 1555.682849 1026.426942 1560.630069 1024.314523 C1559.526607 1012.397670 1561.541090 996.244696 1573.399146 994.627440 M1249.450121 874.996606 C1250.328536 872.063219 1251.206952 869.129832 1252.085367 866.196446 C1261.479892 869.674757 1261.498184 882.615333 1261.370693 892.632293 C1261.243203 902.649253 1267.150874 915.967774 1276.799276 913.272579 C1277.443325 930.010138 1279.499579 946.693132 1282.939023 963.086146 C1284.302439 960.426796 1287.845977 959.795664 1290.817161 960.116777 C1298.898708 960.990200 1306.221748 966.882297 1308.804793 974.589576 C1310.635554 980.052193 1310.233946 986.152632 1312.610957 991.400650 C1314.987967 996.648668 1322.338131 1000.435768 1326.450580 996.400965 C1327.945443 1004.628742 1329.440307 1012.856519 1330.935170 1021.084296 C1334.448247 1018.528864 1338.976855 1017.412546 1343.275129 1018.042453 C1344.251559 1021.566871 1345.227989 1025.091290 1346.204419 1028.615709 C1356.203787 1027.781879 1365.354570 1038.469399 1362.990764 1048.221068 C1371.159760 1050.270530 1379.156577 1042.526628 1380.620757 1034.232717 C1382.084938 1025.938805 1378.963373 1017.596844 1375.897749 1009.752435 C1372.031070 1010.741957 1368.017620 1011.155914 1364.030371 1010.976465 C1363.234546 995.360732 1362.438722 979.744999 1361.642898 964.129266 C1361.398719 959.337960 1361.070177 954.281662 1358.395880 950.298651 C1355.721583 946.315640 1349.824317 944.081801 1345.980855 946.953046 C1347.342087 939.990385 1348.693852 932.716954 1346.758112 925.891669 C1344.822371 919.066385 1338.493212 912.922235 1331.444652 913.728097 C1328.349975 909.641921 1328.574727 904.033436 1328.807728 898.912931 C1329.040729 893.792427 1328.936824 888.092677 1325.438611 884.346164 C1321.940398 880.599651 1313.958561 881.522707 1313.428627 886.621043 C1312.795617 871.010306 1312.162608 855.399570 1311.529599 839.788834 C1311.403622 836.682110 1311.157255 833.278080 1309.007246 831.031958 C1306.857238 828.785836 1302.138715 829.095906 1301.493532 832.137508 C1290.343440 820.119070 1296.465639 797.143835 1312.117711 792.267356 C1313.267362 788.453729 1314.417013 784.640102 1315.566664 780.826475 C1323.548831 782.437317 1332.345432 778.546273 1336.523302 771.556623 C1335.046863 769.586865 1333.570425 767.617107 1332.093987 765.647348 C1338.034319 767.280689 1344.930044 763.864888 1347.230229 758.149601 C1351.655077 747.155142 1365.843584 741.308851 1376.729389 745.994643 C1373.070079 740.232611 1380.549675 734.024438 1386.594181 730.853395 C1392.638687 727.682351 1398.988698 719.570397 1393.739737 715.206914 C1402.962406 713.959702 1412.185074 712.712490 1421.407743 711.465278 C1423.525019 711.178952 1426.155865 710.403038 1426.408957 708.281533 C1427.297454 700.833807 1434.998106 696.578382 1441.087861 692.199693 C1447.177616 687.821004 1452.646678 679.233163 1447.957726 673.378954 C1450.175548 676.964459 1454.410588 679.202902 1458.622425 679.015813 C1460.343875 674.512106 1460.512612 669.431262 1459.093765 664.823265 C1468.619405 664.905114 1481.805550 661.037901 1480.199253 651.648314 C1479.409825 647.033723 1486.564839 646.593096 1491.010699 645.126134 C1494.966800 643.820781 1497.683203 640.271106 1500.146259 636.911339 C1504.228402 631.343033 1508.310545 625.774728 1512.392689 620.206422 C1515.794225 615.566507 1521.402935 610.362077 1526.431805 613.156665 C1529.357737 608.788086 1530.642104 603.347190 1529.978660 598.131310 C1537.211303 597.460686 1544.099739 593.660932 1548.524997 587.900901 C1545.651446 585.693101 1543.894176 582.101023 1543.914912 578.477317 C1527.209080 579.229359 1510.503248 579.981401 1493.797415 580.733443 C1490.896899 580.864014 1487.814537 581.054769 1485.454458 582.745944 C1481.989295 585.228995 1481.272011 589.969495 1479.504043 593.848566 C1477.736075 597.727637 1472.813712 601.224357 1469.499134 598.543596 C1466.448471 603.448397 1463.397807 608.353198 1460.347144 613.257998 C1453.399571 611.971928 1446.197734 610.690797 1439.338297 612.385160 C1432.478860 614.079524 1426.033574 619.615636 1425.659119 626.671309 C1425.312386 633.204636 1408.194998 629.529039 1411.441332 635.209346 C1414.321384 640.248747 1407.374924 645.604717 1401.571026 645.675714 C1395.767129 645.746712 1389.412582 643.722186 1384.493191 646.802749 C1380.234532 649.469554 1378.861372 654.891216 1376.444632 659.296599 C1374.027892 663.701983 1368.363792 667.603012 1364.280572 664.674642 C1362.361938 669.960841 1363.865104 678.628733 1369.361306 677.438426 C1356.571327 678.643135 1343.781348 679.847843 1330.991370 681.052552 C1336.041272 693.306084 1307.200993 699.122705 1311.202236 711.757602 C1301.508739 710.103421 1291.748160 720.012833 1293.548835 729.680189 C1283.429269 731.874582 1275.159224 716.580461 1282.536116 709.313932 C1294.394054 708.030799 1297.514919 692.236881 1296.519042 680.351370 C1295.523164 668.465860 1295.213015 653.353463 1306.002978 648.270765 C1304.986670 651.312817 1303.970362 654.354869 1302.954053 657.396921 C1313.843696 651.230933 1312.436631 635.546068 1311.472447 623.069127 C1310.508262 610.592186 1316.023740 593.762646 1328.467732 595.085817 C1328.672212 582.895507 1328.876691 570.705197 1329.081171 558.514887 C1329.171809 553.111330 1330.897086 545.946465 1336.300626 545.854804 C1343.110660 545.739286 1345.400953 536.793610 1345.660440 529.987542 C1346.465235 508.878299 1347.270033 487.769056 1348.074831 466.659814 C1351.156016 469.727799 1353.224593 473.796433 1353.888029 478.093651 C1358.805920 479.769070 1361.533378 472.502733 1361.597821 467.307685 C1361.838953 447.868947 1362.080084 428.430210 1362.321216 408.991472 C1362.375817 404.589801 1361.538491 398.958222 1357.261300 397.917392 C1350.122226 396.180139 1344.737412 388.960422 1345.107670 381.622348 C1329.313125 377.624373 1312.098546 379.518755 1297.551356 386.855693 C1297.647913 388.808735 1297.744474 390.761862 1297.811942 392.716123 C1298.611405 415.873374 1295.282965 439.167177 1288.030055 461.173828 C1285.690291 458.049816 1284.059298 454.398134 1283.294287 450.570771 C1278.924876 470.437027 1277.477434 490.943430 1279.012911 511.226482 C1275.315229 514.538919 1270.479350 516.556242 1265.523878 516.853532 C1263.393602 539.883672 1261.263326 562.913813 1259.133050 585.943953 C1260.407142 582.008179 1254.008453 579.353358 1250.757163 581.911237 C1247.505873 584.469115 1247.022426 589.126274 1246.798955 593.257096 C1245.883011 610.188166 1244.967066 627.119237 1244.051122 644.050307 C1239.436408 642.077201 1233.919303 645.199263 1231.488923 649.590388 C1229.058543 653.981514 1228.920639 659.231669 1228.841696 664.249885 C1228.700674 673.214341 1228.559652 682.178796 1228.418631 691.143251 C1210.398518 698.254010 1209.314210 722.965228 1211.307310 742.234761 C1200.509415 742.274697 1194.983755 755.575143 1195.210874 766.370723 C1195.437993 777.166302 1198.332730 788.801024 1193.028130 798.206201 C1189.745951 795.471425 1184.376669 797.331188 1181.964389 800.857178 C1179.552109 804.383167 1179.281068 808.899954 1179.089526 813.167858 C1178.127375 834.606544 1177.165221 856.045228 1176.203068 877.483912 C1172.425984 875.785521 1168.648901 874.087130 1164.871817 872.388739 C1163.169784 892.696797 1161.467750 913.004856 1159.765717 933.312914 C1159.146951 940.695812 1152.952032 950.792760 1147.229962 946.086597 C1146.780887 963.298561 1146.331813 980.510525 1145.882739 997.722489 C1145.698056 1004.800935 1148.058742 1014.518407 1155.121809 1014.016823 C1166.824614 1013.185748 1160.644677 987.831418 1172.316039 986.637409 C1168.847483 985.151970 1165.378926 983.666532 1161.910369 982.181093 C1166.743864 981.771434 1171.577359 981.361775 1176.410853 980.952116 C1179.036049 970.913584 1180.596412 960.596943 1181.057325 950.231070 C1185.026397 955.218872 1192.864178 949.013831 1194.625787 942.887786 C1196.387397 936.761741 1197.837820 928.706343 1204.108204 927.560049 C1211.753677 926.162374 1212.686943 915.846276 1213.193493 908.090622 C1213.700043 900.334968 1220.293851 890.443523 1226.897621 894.541934 C1227.718050 883.281826 1229.222673 872.071611 1231.400432 860.993682 C1236.034266 863.277182 1241.423382 863.993649 1246.492880 863.000178 C1247.478627 866.998987 1248.464374 870.997797 1249.450121 874.996606 M350.492825 898.605324 C351.723223 904.252314 355.828642 909.193574 361.154607 911.437784 C361.110004 895.310448 363.048229 879.178588 366.911779 863.520812 C369.250973 868.320740 376.670637 863.770907 378.450766 858.736795 C380.230895 853.702684 382.369171 846.843015 387.697112 847.195412 C390.095422 847.354039 392.042653 849.127589 393.697581 850.870651 C408.741571 866.715821 417.174892 888.652352 416.619511 910.494572 C416.332081 905.060445 422.664633 900.450290 427.747711 902.393142 C429.318642 921.994555 430.889573 941.595969 432.460505 961.197382 C441.575769 962.138442 450.691034 963.079503 459.806299 964.020563 C457.350448 979.579404 467.971651 993.865657 477.971100 1006.036104 C479.875287 1008.353714 481.779475 1010.671323 483.683663 1012.988933 C491.461253 1012.328317 498.717638 1020.289607 497.340856 1027.972821 C507.084000 1028.640143 516.827145 1029.307465 526.570289 1029.974788 C528.506789 1035.376868 530.443289 1040.778949 532.379788 1046.181029 C548.103290 1045.996836 563.843450 1047.260069 579.336324 1049.949545 C577.027210 1053.716201 574.718096 1057.482856 572.408982 1061.249512 C602.257970 1063.466742 632.284143 1063.294268 662.105690 1060.734281 C661.234501 1056.170389 660.363312 1051.606497 659.492122 1047.042605 C651.203217 1045.366724 642.367435 1046.528180 634.793213 1050.289257 C631.602840 1043.342696 628.412466 1036.396136 625.222093 1029.449575 C612.485775 1030.853789 594.129263 1027.039293 595.709126 1014.323570 C588.317187 1013.232465 580.925248 1012.141361 573.533309 1011.050257 C577.947436 1008.082275 578.449261 1000.783445 574.482873 997.239268 C564.480569 996.293636 554.478265 995.348005 544.475962 994.402373 C546.193167 990.720728 544.759675 985.865845 541.318086 983.707427 C534.327696 976.697423 527.337307 969.687419 520.346918 962.677414 C516.558848 958.878715 512.605734 954.790017 511.413592 949.559493 C510.479053 945.459207 511.324218 940.921062 509.393038 937.185255 C507.461857 933.449447 500.512041 932.567300 499.884526 936.725658 C502.471090 924.675382 492.765922 911.486205 480.491719 910.371125 C486.085319 898.229401 479.392960 882.008810 466.865127 877.343703 C461.111835 866.153428 463.969371 852.715959 463.315329 840.150338 C462.661288 827.584717 454.827047 812.791918 442.276357 813.687895 C433.110572 814.342228 430.028855 801.967789 428.699370 792.875363 C427.369884 783.782936 418.248460 772.675852 411.325756 778.718692 C412.271919 763.649148 413.218082 748.579604 414.164245 733.510061 C419.230248 731.057581 424.296252 728.605100 429.362255 726.152620 C428.128902 722.289486 429.292259 717.766903 432.236628 714.978416 C442.091662 707.309322 451.946697 699.640229 461.801732 691.971135 C462.730375 688.701200 463.659019 685.431264 464.587662 682.161328 C473.975201 677.198632 485.341761 680.891001 495.955793 681.201777 C506.569825 681.512552 519.785648 674.137754 517.177597 663.844439 C534.561229 669.496308 555.064175 663.842849 567.094525 650.080401 C582.221823 632.775114 607.437023 624.670740 629.579634 630.836198 C630.912943 625.505214 632.246248 620.174222 633.579554 614.843231 C642.574082 613.627684 651.568609 612.412137 660.563137 611.196590 C659.245650 603.975579 665.461450 597.111724 672.502230 595.036586 C679.543010 592.961448 687.082195 594.420496 694.273754 595.890277 C696.332645 591.119709 693.738411 584.893295 688.901328 582.995932 C694.809326 579.431432 702.342068 578.694824 708.828671 581.047288 C712.456635 576.673571 713.097618 570.054180 710.376240 565.065630 C716.834406 563.859302 723.292572 562.652974 729.750737 561.446646 C736.198432 553.033418 742.646126 544.620190 749.093820 536.206962 C752.043773 532.357736 758.171527 528.460779 760.875224 532.486793 C761.980083 526.442501 766.195195 521.508618 770.251117 516.893027 C780.282820 505.477069 790.314524 494.061111 800.346227 482.645152 C814.410747 476.321059 815.677959 457.178414 814.814542 441.781680 C814.590051 445.845699 820.720377 447.566754 823.955800 445.097203 C827.191223 442.627651 828.068033 438.208025 828.714633 434.189498 C830.469038 423.286115 832.223442 412.382732 833.977847 401.479349 C849.358902 397.557826 847.900869 375.677985 845.467555 359.992508 C844.695827 355.017855 844.333804 349.438650 847.399804 345.445858 C850.465805 341.453066 858.207036 341.366104 859.563269 346.214133 C863.237523 339.542113 862.363248 330.648219 857.460153 324.819350 C857.118615 330.698978 853.374170 336.259226 848.054355 338.786328 C846.891376 329.426444 848.367869 319.752906 852.270085 311.166134 C855.184707 314.592159 858.099329 318.018184 861.013951 321.444209 C862.170253 307.545565 862.852239 293.607464 863.058323 279.662325 C863.114847 275.837500 862.610687 271.151977 859.103308 269.625291 C855.595928 268.098606 852.262922 275.107365 856.080217 275.353825 C849.553738 275.981993 845.815852 267.749096 846.168922 261.201969 C846.521991 254.654842 848.786753 247.707088 845.922185 241.809310 C835.435058 220.217658 815.874176 203.215330 793.032401 195.837483 C785.755612 193.487095 776.078224 186.869203 780.809906 180.861943 C756.052350 179.757892 731.268488 179.243546 706.486431 179.319482 C694.191902 179.357155 677.453794 184.214616 678.936225 196.419504 C670.813531 191.074661 659.809940 195.418419 652.068662 201.302136 C644.327385 207.185852 637.144718 214.814288 627.573391 216.527528 C629.774378 220.375948 629.501132 225.501761 626.903480 229.094376 C614.113047 223.504018 600.224124 233.370842 589.756679 242.605556 C586.573542 245.413821 583.390406 248.222085 580.207270 251.030350 C572.617881 259.663072 565.028492 268.295795 557.439104 276.928517 C549.664310 278.629270 541.889516 280.330023 534.114722 282.030775 C531.001875 291.706043 527.889028 301.381311 524.776181 311.056579 C524.308816 306.213079 519.423021 302.254179 514.587859 302.801105 C519.310902 316.132561 506.816398 332.273413 492.726730 331.042099 C492.641238 335.425433 492.555745 339.808767 492.470253 344.192100 C483.767461 342.025193 475.489972 353.838900 480.498131 361.278821 C471.306037 361.787564 465.681384 371.293572 461.733038 379.610060 C459.668259 383.959164 457.603476 388.308266 455.538694 392.657368 C450.098859 404.115423 444.541632 416.082745 444.691829 428.765658 C440.286940 423.696634 432.718222 431.088481 430.968130 437.571940 C429.218037 444.055398 425.191898 452.774944 418.835130 450.609405 C425.153337 446.951327 429.884560 461.236028 422.631893 462.072747 C419.556406 459.498031 416.480918 456.923314 413.405431 454.348598 C413.461444 491.338895 413.517457 528.329193 413.573470 565.319490 C413.586776 574.106103 406.789340 586.652045 399.926298 581.165389 C398.519878 591.314364 397.113459 601.463340 395.707040 611.612316 C390.845354 612.927361 385.983669 614.242406 381.121983 615.557451 C380.077061 633.853476 379.032139 652.149501 377.987216 670.445526 C375.237453 673.676653 369.055691 672.537992 367.637661 668.539171 C359.634800 677.072471 351.631938 685.605771 343.629076 694.139071 C332.484484 695.581304 329.560659 710.171638 329.420438 721.408288 C329.178558 740.791426 328.936677 760.174564 328.694797 779.557702 C319.005002 777.499911 312.783264 790.156865 313.287784 800.049898 C313.792303 809.942931 316.944233 820.896389 311.316002 829.048055 C308.370215 832.496124 303.389378 834.058417 299.002003 832.910473 C297.825129 852.748782 296.648256 872.587090 295.471382 892.425398 C291.334653 894.705622 285.870967 894.308271 282.107683 891.453513 C278.537844 908.228849 277.156496 925.468583 278.009662 942.598316 C273.933823 943.593491 269.857984 944.588666 265.782145 945.583841 C261.481703 948.547289 261.382112 954.787027 262.061030 959.965337 C262.739948 965.143646 263.542869 971.063626 260.118028 975.006504 C256.693188 978.949383 247.896870 976.092283 249.749016 971.209110 C245.729025 997.958439 245.870112 1025.328991 250.165650 1052.035455 C251.726084 1047.058674 259.728409 1045.963767 262.568347 1050.338474 C257.498368 1054.668719 263.364529 1063.839687 270.031419 1063.748656 C276.698309 1063.657626 281.966375 1058.283906 286.232961 1053.160240 C292.089870 1046.126781 297.608777 1038.811877 302.764266 1031.249216 C301.363717 1036.616172 304.885652 1042.777275 310.221024 1044.293706 C307.778373 1026.794440 313.353457 1008.335921 325.074732 995.114629 C331.781313 987.549782 329.669298 976.035693 329.922255 965.929203 C330.175213 955.822712 337.202787 943.351133 346.974809 945.942028 C347.326435 930.116392 348.501219 914.309078 350.492825 898.605324 M691.852197 779.412356 C690.098113 775.425916 683.510537 776.656444 681.349512 780.437778 C679.188487 784.219113 679.876117 788.892569 680.068896 793.243587 C680.480781 802.539743 678.259242 811.938291 673.728819 820.066232 C677.665107 819.233143 680.602996 825.514510 677.440354 828.001697 C675.257694 827.072022 673.482313 825.227020 672.637239 823.010232 C670.636167 824.040909 669.698494 826.742559 670.630770 828.791326 C668.720099 828.137480 666.809428 827.483634 664.898756 826.829788 C661.896941 848.221896 660.806369 869.881830 661.644276 891.467266 C660.513177 894.417396 656.263425 895.585922 653.783018 893.628825 C655.742058 892.504592 657.288236 890.678131 658.073668 888.560388 C656.043201 889.020522 654.012733 889.480655 651.982266 889.940789 C652.698297 885.162849 651.386762 880.114343 648.435727 876.289058 C645.084192 915.989021 644.759773 955.944181 647.466214 995.693332 C650.820059 995.315954 654.206811 995.231488 657.575298 995.441211 C658.368230 993.779904 659.161162 992.118596 659.954094 990.457289 C662.227686 1002.665595 663.200174 1015.115783 662.849779 1027.529048 C662.692652 1033.095514 662.646184 1039.562146 666.965583 1043.076833 C669.731334 1045.327317 673.540872 1045.657297 677.098775 1045.892614 C684.073592 1046.353922 691.048409 1046.815231 698.023226 1047.276539 C696.088683 1052.239582 697.052552 1058.217088 700.449056 1062.320502 C705.548571 1061.668195 710.645349 1063.788045 715.779033 1063.512666 C723.308628 1063.108781 730.121794 1056.904950 731.227311 1049.446012 C732.332827 1041.987073 727.612017 1034.073749 720.523273 1031.503218 C722.186749 1033.058031 717.350209 1034.625007 717.785865 1032.390100 C718.085389 1034.389100 716.806074 1036.511102 714.898453 1037.179455 C712.017499 990.264695 712.379679 943.151064 715.981554 896.286140 C719.303433 898.398588 720.852812 902.926771 719.521337 906.631429 C721.228163 902.063699 724.981884 898.305483 729.547566 896.593191 C730.026704 877.357880 730.812345 858.130205 731.904092 838.919926 C735.058016 842.022318 739.661888 843.584263 744.052500 843.041487 C744.935123 825.955719 746.550512 808.907820 748.892739 791.960359 C749.994123 795.849948 755.982681 796.139976 758.860308 793.300749 C761.737935 790.461522 762.304341 786.092758 762.711681 782.070815 C763.484136 774.443822 764.256593 766.816828 765.029049 759.189835 C766.920060 764.207783 775.006818 763.604690 778.182711 759.283876 C781.358604 754.963062 781.057892 749.094076 780.616396 743.749845 C780.174900 738.405613 779.869451 732.538130 783.039049 728.212697 C786.303150 732.134347 793.375681 729.407891 795.202766 724.643916 C797.029850 719.879941 795.337225 714.555393 793.507875 709.792287 C791.923736 705.667642 790.455271 700.392189 793.645818 697.335621 C787.279330 700.806232 778.267091 693.873194 779.989081 686.829611 C781.152045 682.072655 774.257512 679.924337 769.361921 680.043965 C761.994727 680.223990 754.627532 680.404015 747.260338 680.584040 C746.783570 687.409126 743.505239 696.570309 736.790863 695.256436 C733.352361 694.583589 730.009515 697.409687 728.850982 700.716320 C727.692449 704.022952 728.162951 707.650066 728.647280 711.120144 C723.786067 711.469615 718.924855 711.819086 714.063643 712.168557 C713.287803 718.224028 712.511964 724.279498 711.736125 730.334969 C705.017646 728.423361 698.407922 734.752943 696.617508 741.504729 C694.827093 748.256516 696.161250 755.397880 695.893767 762.377898 C695.668880 768.246386 694.287575 774.068326 691.852197 779.412356 M796.026369 609.117042 C803.260921 611.763071 810.495472 614.409100 817.730024 617.055128 C818.612775 615.855178 820.251940 615.560294 821.727852 615.358266 C829.317765 614.319348 836.907678 613.280427 844.497591 612.241506 C847.803326 606.905136 844.728279 597.627327 850.541017 595.257344 C853.371434 594.103320 856.500161 595.688472 859.536441 596.040658 C865.246853 596.703022 872.251342 593.313328 876.100128 597.583501 C879.102171 600.914224 877.526055 606.677178 880.396024 610.122357 C882.456075 612.595292 886.052468 612.986195 889.269463 613.086983 C895.134108 613.270722 901.009876 613.098768 906.853739 612.572378 C908.896944 612.388335 911.170431 612.035525 912.417028 610.406244 C913.604976 608.853613 913.435841 606.691209 913.210319 604.749297 C912.472044 598.392254 911.733771 592.035211 910.995498 585.678167 C910.877839 584.665038 910.737169 583.594200 910.104081 582.794529 C909.107279 581.535443 907.285605 581.386190 905.680372 581.339921 C886.885488 580.798201 868.090605 580.256478 849.295722 579.714755 C846.693949 579.639764 844.603896 577.644362 842.790739 575.776930 C840.482999 573.400107 838.175258 571.023285 835.867517 568.646463 C837.607848 568.255411 839.348179 567.864360 841.088510 567.473309 C840.238139 564.657686 835.891969 563.786945 834.022565 566.057670 C830.040192 562.052561 823.519753 562.337010 818.003238 563.548723 C812.486722 564.760435 806.699253 566.612858 801.338617 564.834159 C796.019928 578.874287 794.179354 594.217303 796.026369 609.117042 M1573.057462 559.777676 C1571.998804 559.383023 1570.940145 558.988370 1569.881486 558.593716 C1572.581464 556.768638 1574.503985 553.830789 1575.095557 550.625976 C1571.009685 550.194200 1566.923813 549.762424 1562.837941 549.330648 C1560.704760 549.105224 1558.571579 548.879799 1556.438398 548.654375 C1553.078484 548.299315 1548.895815 548.351475 1547.307943 551.333714 C1545.685118 554.381598 1548.114204 557.937128 1550.400618 560.524689 C1551.703755 561.999466 1553.343031 563.610294 1555.295850 563.366104 C1557.853989 563.046221 1560.547123 559.741718 1562.286459 561.644639 C1560.056648 561.924591 1558.498607 564.180317 1558.245947 566.413385 C1557.993286 568.646454 1558.735810 570.858923 1559.467751 572.983705 C1560.365091 567.726132 1562.899327 562.759857 1566.629973 558.948090 C1567.517559 560.071033 1568.493883 561.255720 1569.867745 561.657358 C1571.241608 562.058995 1573.053637 561.209037 1573.057462 559.777676 M564.538150 1055.116312 C564.199767 1053.757954 563.861384 1052.399597 563.523001 1051.041239 C562.887146 1052.039750 562.251290 1053.038260 561.615435 1054.036771 C559.560107 1052.039382 557.036508 1049.884652 554.210754 1050.363242 C551.713868 1050.786130 550.057798 1053.107603 548.683943 1055.234996 C549.547347 1059.366567 553.261601 1062.736586 557.457414 1063.195350 C561.653227 1063.654113 566.007964 1061.166345 567.743772 1057.318972 C568.299403 1056.087430 569.947543 1055.970274 571.250820 1055.614059 C572.554097 1055.257845 573.864021 1053.640617 572.869706 1052.725873 C569.927835 1052.514840 566.920627 1053.377650 564.538150 1055.116312 M980.536735 1035.986707 C981.482010 1035.013982 982.249391 1033.868918 982.789747 1032.624830 C984.770337 1034.372079 987.761261 1034.878787 990.206832 1033.881397 C989.498404 1031.192309 986.751030 1029.194185 983.974488 1029.348705 C981.197946 1029.503224 978.689250 1031.793860 978.283578 1034.544949 C978.698755 1035.384874 979.600135 1035.961652 980.536735 1035.986705 M1551.214839 577.029840 C1553.745340 578.894067 1557.788919 578.152046 1559.492642 575.510813 C1557.441303 574.950831 1555.389964 574.390850 1553.338625 573.830868 C1550.900812 573.716936 1548.466844 575.226158 1547.485086 577.460451 C1548.469325 577.697578 1549.453568 577.934705 1550.437811 578.171833 M872.459721 1061.019407 C871.583716 1058.084402 869.526988 1055.520189 866.852053 1054.028087 C866.349256 1056.269438 865.882711 1058.768043 867.057520 1060.741941 C868.232329 1062.715839 871.798828 1063.112911 872.547785 1060.941388 M1692.831520 808.175461 C1694.083774 805.459391 1693.591387 802.028805 1691.625755 799.774593 C1690.381293 803.381958 1689.136829 806.989324 1687.892366 810.596690 C1689.411478 809.703769 1690.930591 808.810849 1692.449703 807.917928 M968.870123 1031.336876 C968.198038 1031.973398 968.305236 1033.233297 969.075198 1033.747123 C969.845160 1034.260949 971.049732 1033.876447 971.379603 1033.011551 C972.573451 1035.459138 977.234090 1033.896918 976.711663 1031.224273 C974.552565 1029.566494 971.163250 1029.812017 969.265619 1031.763668 M1367.711027 1006.533550 C1368.082678 1008.070447 1369.716946 1009.188805 1371.284116 1008.978677 C1372.851286 1008.768550 1374.133226 1007.259182 1374.086890 1005.678668 C1371.709842 1006.112630 1369.152939 1004.338753 1368.727074 1001.960237 C1367.940126 1003.315755 1367.675782 1004.966112 1367.999987 1006.499608 M838.499990 948.000000 C836.832460 947.999506 835.164931 947.999013 833.497401 947.998520 C833.025886 948.710442 832.850116 949.611951 833.019651 950.448860 C835.228645 950.494175 837.437637 950.539490 839.646629 950.584804 C840.088450 949.636350 839.435883 948.356167 838.408800 948.156478 M1375.363760 1060.093300 C1374.717886 1059.097548 1374.072012 1058.101797 1373.426138 1057.106046 C1371.552864 1057.297272 1370.535964 1059.993157 1371.816273 1061.373929 C1373.096582 1062.754701 1375.861466 1061.943960 1376.193389 1060.090437 M1053.158196 759.595852 C1052.498297 760.508507 1053.350042 762.034731 1054.473255 761.952279 C1056.083274 760.838427 1057.367786 759.259831 1058.131088 757.457001 C1056.337166 756.532324 1053.824061 757.628892 1053.281865 759.572910 M649.143963 871.560895 C648.721483 872.525679 648.299004 873.490463 647.876525 874.455247 C648.669943 874.993002 649.699953 875.166865 650.625926 874.919339 C649.694412 873.237461 649.779045 871.041398 650.837238 869.436197 C650.434041 868.557768 649.485971 867.958960 648.519520 867.972309 C647.645954 868.987153 647.882372 870.748852 648.992595 871.497477 M520.505900 679.031972 C522.863845 678.815660 524.575568 675.996270 523.679656 673.804459 C522.236263 673.862952 521.728516 675.722619 521.623863 677.163400 C520.600886 676.389292 519.225270 676.102025 517.977989 676.402042 C518.818573 677.267941 519.659158 678.133839 520.499743 678.999736 M1126.016341 732.315708 C1124.467956 732.170654 1122.919572 732.025601 1121.371187 731.880547 C1120.809151 733.996855 1123.718480 736.033035 1125.514380 734.780283 C1125.744272 734.036419 1125.974163 733.292552 1126.204054 732.548685 M1253.168038 874.734177 C1252.412037 875.688245 1252.657659 877.268161 1253.667625 877.947684 C1254.677591 878.627206 1256.233624 878.259474 1256.832553 877.199725 C1255.605903 877.021694 1255.024455 875.207821 1255.919001 874.349827 C1255.193508 873.708087 1253.839586 874.128646 1253.605371 875.068490 M818.274491 623.689056 C817.506934 624.269438 816.739377 624.849820 815.971820 625.430202 C817.345095 627.108638 819.565747 628.055134 821.727589 627.883453 C820.609389 626.628157 819.491188 625.372864 818.372987 624.117571 M324.955482 1006.640174 C325.941896 1006.946766 326.928309 1007.253358 327.914723 1007.559951 C327.819821 1005.489963 326.432672 1003.534537 324.510347 1002.760895 C323.961149 1003.943343 324.199300 1005.447497 325.086911 1006.402457 M1349.638845 1137.222567 C1351.096370 1136.807599 1349.634556 1134.007426 1348.533877 1135.049099 C1348.030894 1136.192896 1347.527914 1137.336690 1347.024933 1138.480485 C1347.875733 1139.543267 1349.964824 1138.865001 1350.029061 1137.505134 M905.507522 764.079154 C903.752393 764.272022 902.086266 765.178913 900.971463 766.548179 C903.473637 766.711872 906.023468 766.035750 908.115785 764.653764 C907.420685 764.045744 906.418375 763.808995 905.524683 764.041737 M840.588936 958.071531 C839.349072 959.553140 839.730087 962.091526 841.350295 963.143835 C842.589250 961.558945 842.299075 958.999053 840.736803 957.731692 M1507.029470 765.303045 C1506.186374 765.174737 1505.343279 765.046428 1504.500184 764.918119 C1504.040698 765.698593 1503.858873 766.638823 1503.994250 767.534333 C1505.090704 768.060381 1506.361330 768.215080 1507.551973 767.967486 C1507.398888 767.138784 1507.245801 766.310080 1507.092714 765.481377 M1202.507839 1236.952592 C1204.527618 1237.576067 1206.400783 1235.498219 1207.012739 1233.474920 C1204.930830 1233.560320 1202.956232 1234.936897 1202.155994 1236.860765 M1622.055892 919.319394 C1620.117095 918.570943 1618.106303 921.539106 1619.520395 923.062082 C1621.165871 922.981190 1622.445056 921.083580 1621.902786 919.527922 M453.118330 816.438457 C453.712967 817.846965 455.702360 818.433495 456.966005 817.572863 C457.362002 815.443603 453.529489 814.367248 452.759020 816.391341 M1685.442305 807.878332 C1686.873462 807.282041 1687.441436 805.231910 1686.521153 803.984171 C1685.353137 805.153791 1684.185124 806.323414 1683.017110 807.493037 C1683.401428 808.433995 1684.801673 808.752015 1685.554737 808.069377 M636.756855 625.619965 C635.731633 625.001119 634.179519 625.778410 634.060977 626.970046 C633.942435 628.161682 635.310999 629.229517 636.438045 628.824776 C637.234065 628.092288 637.258159 626.682491 636.487634 625.923229 M1020.717032 777.579908 C1021.267630 779.320793 1024.335453 779.240623 1024.794375 777.473356 C1024.292371 775.926790 1021.571854 775.995262 1021.148284 777.565121 M727.303619 911.970386 C727.175641 912.813175 727.047662 913.655963 726.919684 914.498752 C727.686462 914.961067 728.619995 915.139758 729.503302 914.993292 C729.978117 914.263596 730.156172 913.346716 729.988981 912.492342 C729.267788 912.013715 728.348596 911.844165 727.504104 912.033988 M1670.450208 841.983294 C1670.126422 843.735360 1673.527805 844.264484 1673.751547 842.496854 C1673.418240 841.129693 1671.197562 840.806418 1670.488299 842.021806 M518.141912 671.240423 C519.658642 672.158885 521.795902 671.879430 523.025495 670.601877 C521.458661 669.401310 518.944401 669.724577 517.732227 671.282451 M1504.449831 1092.963806 C1505.350151 1092.454118 1504.551027 1090.883394 1503.516458 1090.878458 C1502.481888 1090.873521 1501.674743 1091.731531 1501.006926 1092.521707 C1501.736188 1093.595074 1503.466588 1093.786332 1504.412659 1092.898139 M520.701605 302.018279 C520.833430 301.141622 520.965255 300.264966 521.097081 299.388309 C520.225118 299.216156 519.353159 299.044005 518.481199 298.871854 C517.659353 300.173866 518.945056 302.183637 520.471661 301.983283 M375.313708 668.011042 C375.395131 667.092889 374.682969 666.173598 373.773600 666.022997 C372.834774 666.426604 372.546408 667.844723 373.253052 668.582925 C373.959696 669.321128 375.389053 669.094957 375.833267 668.174651 M727.999411 905.484647 C729.526018 904.929303 727.848044 902.063257 726.616560 903.122683 C725.649476 904.047551 726.790779 906.035075 728.077019 905.666004 M836.392557 964.336572 C835.878540 963.235703 835.364522 962.134835 834.850505 961.033967 C833.186822 961.924765 834.106081 965.078892 835.987852 964.936381 M328.876797 999.602431 C328.182450 998.472569 326.027399 999.109337 326.058643 1000.435131 C326.854802 1001.533989 328.985221 1000.862999 329.007965 999.506221 M1545.042214 563.611601 C1544.071027 563.877649 1543.711767 565.337351 1544.448536 566.023759 C1545.336395 566.058605 1546.363993 565.695136 1546.626308 564.846200 C1546.888623 563.997265 1545.689776 563.024214 1545.097289 563.686377 M641.042214 624.611601 C640.071027 624.877649 639.711767 626.337351 640.448536 627.023759 C641.336395 627.058605 642.363993 626.695136 642.626308 625.846200 C642.888623 624.997265 641.689776 624.024214 641.097289 624.686377 M1173.867353 849.562872 C1173.616636 848.386533 1171.561174 848.314303 1171.228504 849.470143 C1171.334517 850.934824 1174.031374 850.986625 1174.193558 849.527097 M1011.926622 1059.574699 C1011.329340 1058.883566 1010.054068 1058.994355 1009.584920 1059.778135 C1009.115771 1060.561914 1009.620617 1061.738232 1010.511936 1061.938133 C1011.315963 1061.376294 1011.862920 1060.460627 1011.976469 1059.486342 M1373.068233 1116.329904 C1374.103093 1117.313400 1374.880997 1114.416787 1373.476047 1114.163183 C1372.525394 1114.443257 1372.222136 1115.905743 1372.983042 1116.540723 M365.432152 665.881881 C366.539960 665.092348 365.810800 662.940069 364.451222 662.986451 C363.815510 663.990800 364.413794 665.534921 365.560250 665.848756 M719.913327 909.249257 C720.759321 909.208289 719.336901 908.129382 718.860620 908.829768 C718.384339 909.530154 717.833477 910.717947 717.123565 910.255985 C717.707794 911.502593 720.054891 910.888075 719.953265 909.515116 z"/></svg>