<?xml version="1.0" encoding="UTF-8" standalone="no"?>
<!DOCTYPE svg PUBLIC "-//W3C//DTD SVG 1.1//EN" "http://www.w3.org/Graphics/SVG/1.1/DTD/svg11.dtd">
<svg width="100%" height="100%" viewBox="0 0 7 7" version="1.1" xmlns="http://www.w3.org/2000/svg" xmlns:xlink="http://www.w3.org/1999/xlink" xml:space="preserve" xmlns:serif="http://www.serif.com/" style="fill-rule:evenodd;clip-rule:evenodd;stroke-linejoin:round;stroke-miterlimit:2;">
<path d="M2.847,3.045c-0.013,0.708 0.079,2.467 0.079,2.467l0.858,0.005c0,-0 -0.311,-3.08 0.615,-3.088c0.914,-0.007 0.719,3.094 0.719,3.094l0.897,-0.003c-0,-0 0.275,-4.119 -1.227,-4.162c-1.289,-0.037 -1.93,1.101 -1.941,1.687Z" style="fill:#098;fill-opacity:0.6;"/>
<path d="M2.842,3.056c-0.124,-0.375 -0.276,-0.639 -0.457,-0.634c-0.98,0.028 -0.71,3.131 -0.71,3.131l-0.857,0.001l-0.004,-4.167l0.756,-0.008l0.002,0.331c-0,-0 0.346,-0.334 0.977,-0.323c0.611,0.011 0.955,0.709 1.009,0.827l-0.716,0.842Z" style="fill:#098;"/>
</svg>